<mxfile host="65bd71144e">
    <diagram name="EXIT-IR to RUN-TEST-IDLE Command" id="nXBvxHpEUvH6NNFwJLne">
        <mxGraphModel dx="880" dy="553" grid="1" gridSize="10" guides="1" tooltips="1" connect="1" arrows="1" fold="1" page="1" pageScale="1" pageWidth="850" pageHeight="1100" math="0" shadow="0">
            <root>
                <mxCell id="MckouswNsiALWjevBBz5-0"/>
                <mxCell id="MckouswNsiALWjevBBz5-1" parent="MckouswNsiALWjevBBz5-0"/>
                <mxCell id="MckouswNsiALWjevBBz5-2" value="&lt;font style=&quot;font-size: 18px&quot;&gt;4B&lt;/font&gt;" style="rounded=0;whiteSpace=wrap;html=1;fillColor=#d80073;fontColor=#ffffff;strokeColor=#A50040;" vertex="1" parent="MckouswNsiALWjevBBz5-1">
                    <mxGeometry x="40" y="70" width="80" height="80" as="geometry"/>
                </mxCell>
                <mxCell id="MckouswNsiALWjevBBz5-3" value="&lt;font style=&quot;font-size: 18px&quot;&gt;02&lt;/font&gt;" style="rounded=0;whiteSpace=wrap;html=1;fillColor=#e3c800;fontColor=#000000;strokeColor=#B09500;" vertex="1" parent="MckouswNsiALWjevBBz5-1">
                    <mxGeometry x="120" y="70" width="80" height="80" as="geometry"/>
                </mxCell>
                <mxCell id="MckouswNsiALWjevBBz5-4" value="&lt;font style=&quot;font-size: 18px&quot;&gt;Cmd&lt;/font&gt;" style="text;html=1;strokeColor=none;fillColor=none;align=center;verticalAlign=middle;whiteSpace=wrap;rounded=0;fontColor=#FFFFFF;" vertex="1" parent="MckouswNsiALWjevBBz5-1">
                    <mxGeometry x="40" y="155" width="80" height="40" as="geometry"/>
                </mxCell>
                <mxCell id="MckouswNsiALWjevBBz5-5" value="&lt;font style=&quot;font-size: 18px&quot;&gt;Length&lt;br&gt;(bits)&lt;/font&gt;" style="text;html=1;strokeColor=none;fillColor=none;align=center;verticalAlign=middle;whiteSpace=wrap;rounded=0;fontColor=#FFFFFF;" vertex="1" parent="MckouswNsiALWjevBBz5-1">
                    <mxGeometry x="90" y="160" width="140" height="30" as="geometry"/>
                </mxCell>
                <mxCell id="MckouswNsiALWjevBBz5-6" value="&lt;font style=&quot;font-size: 18px&quot;&gt;01&lt;/font&gt;" style="rounded=0;whiteSpace=wrap;html=1;fillColor=#60a917;fontColor=#ffffff;strokeColor=#2D7600;" vertex="1" parent="MckouswNsiALWjevBBz5-1">
                    <mxGeometry x="200" y="70" width="80" height="80" as="geometry"/>
                </mxCell>
                <mxCell id="MckouswNsiALWjevBBz5-7" value="&lt;b&gt;&lt;font style=&quot;font-size: 22px&quot;&gt;Clock Data to TMS Pin (LSB first, No Read)&lt;/font&gt;&lt;/b&gt;" style="text;html=1;strokeColor=none;fillColor=none;align=left;verticalAlign=middle;whiteSpace=wrap;rounded=0;fontSize=18;fontColor=#FFFFFF;" vertex="1" parent="MckouswNsiALWjevBBz5-1">
                    <mxGeometry width="450" height="70" as="geometry"/>
                </mxCell>
                <mxCell id="MckouswNsiALWjevBBz5-8" value="&lt;span style=&quot;font-size: 18px&quot;&gt;Data&lt;br&gt;(to TMS)&lt;br&gt;&lt;/span&gt;" style="text;html=1;strokeColor=none;fillColor=none;align=center;verticalAlign=middle;whiteSpace=wrap;rounded=0;fontColor=#FFFFFF;" vertex="1" parent="MckouswNsiALWjevBBz5-1">
                    <mxGeometry x="200" y="160" width="80" height="30" as="geometry"/>
                </mxCell>
            </root>
        </mxGraphModel>
    </diagram>
    <diagram id="aVZfZbSF4y_E_lTRmamO" name="JTAG Daisy Chain">
        <mxGraphModel dx="748" dy="470" grid="1" gridSize="10" guides="1" tooltips="1" connect="1" arrows="1" fold="1" page="1" pageScale="1" pageWidth="850" pageHeight="1100" math="0" shadow="0">
            <root>
                <mxCell id="0"/>
                <mxCell id="1" parent="0"/>
                <mxCell id="MK5vr49ICCGfiTwoqeV6-1" value="&lt;span style=&quot;font-size: 22px;&quot;&gt;&lt;b&gt;Time T0&lt;/b&gt;&lt;/span&gt;" style="text;html=1;strokeColor=none;fillColor=none;align=left;verticalAlign=middle;whiteSpace=wrap;rounded=0;fontSize=18;fontColor=#FFFFFF;" parent="1" vertex="1">
                    <mxGeometry x="95" y="20" width="450" height="70" as="geometry"/>
                </mxCell>
                <mxCell id="NQSN5txB_GqRC8pSG8kW-1" value="&lt;font style=&quot;font-size: 18px&quot;&gt;0&lt;/font&gt;" style="rounded=0;whiteSpace=wrap;html=1;fillColor=#d80073;fontColor=#ffffff;strokeColor=#A50040;" parent="1" vertex="1">
                    <mxGeometry x="200" y="80" width="80" height="80" as="geometry"/>
                </mxCell>
                <mxCell id="NQSN5txB_GqRC8pSG8kW-2" value="&lt;font style=&quot;font-size: 18px&quot;&gt;0&lt;/font&gt;" style="rounded=0;whiteSpace=wrap;html=1;fillColor=#d80073;fontColor=#ffffff;strokeColor=#A50040;" parent="1" vertex="1">
                    <mxGeometry x="280" y="80" width="80" height="80" as="geometry"/>
                </mxCell>
                <mxCell id="NQSN5txB_GqRC8pSG8kW-3" value="&lt;font style=&quot;font-size: 18px&quot;&gt;0&lt;/font&gt;" style="rounded=0;whiteSpace=wrap;html=1;fillColor=#d80073;fontColor=#ffffff;strokeColor=#A50040;" parent="1" vertex="1">
                    <mxGeometry x="360" y="80" width="80" height="80" as="geometry"/>
                </mxCell>
                <mxCell id="NQSN5txB_GqRC8pSG8kW-4" value="&lt;font style=&quot;font-size: 18px&quot;&gt;0&lt;/font&gt;" style="rounded=0;whiteSpace=wrap;html=1;fillColor=#d80073;fontColor=#ffffff;strokeColor=#A50040;" parent="1" vertex="1">
                    <mxGeometry x="440" y="80" width="80" height="80" as="geometry"/>
                </mxCell>
                <mxCell id="MK5vr49ICCGfiTwoqeV6-5" style="edgeStyle=none;html=1;exitX=1;exitY=0.5;exitDx=0;exitDy=0;entryX=0;entryY=0.5;entryDx=0;entryDy=0;fontColor=#FFFFFF;strokeColor=#FFFFFF;" parent="1" source="NQSN5txB_GqRC8pSG8kW-5" target="NQSN5txB_GqRC8pSG8kW-6" edge="1">
                    <mxGeometry relative="1" as="geometry"/>
                </mxCell>
                <mxCell id="NQSN5txB_GqRC8pSG8kW-5" value="&lt;font style=&quot;font-size: 18px&quot;&gt;1&lt;/font&gt;" style="rounded=0;whiteSpace=wrap;html=1;fillColor=#d80073;fontColor=#ffffff;strokeColor=#A50040;" parent="1" vertex="1">
                    <mxGeometry x="520" y="80" width="80" height="80" as="geometry"/>
                </mxCell>
                <mxCell id="NQSN5txB_GqRC8pSG8kW-6" value="&lt;font style=&quot;font-size: 18px&quot;&gt;0&lt;/font&gt;" style="rounded=0;whiteSpace=wrap;html=1;fillColor=#60a917;fontColor=#ffffff;strokeColor=#2D7600;" parent="1" vertex="1">
                    <mxGeometry x="680" y="80" width="80" height="80" as="geometry"/>
                </mxCell>
                <mxCell id="NQSN5txB_GqRC8pSG8kW-7" value="&lt;font style=&quot;font-size: 18px&quot;&gt;0&lt;/font&gt;" style="rounded=0;whiteSpace=wrap;html=1;fillColor=#60a917;fontColor=#ffffff;strokeColor=#2D7600;" parent="1" vertex="1">
                    <mxGeometry x="760" y="80" width="80" height="80" as="geometry"/>
                </mxCell>
                <mxCell id="NQSN5txB_GqRC8pSG8kW-8" value="&lt;font style=&quot;font-size: 18px&quot;&gt;0&lt;/font&gt;" style="rounded=0;whiteSpace=wrap;html=1;fillColor=#60a917;fontColor=#ffffff;strokeColor=#2D7600;" parent="1" vertex="1">
                    <mxGeometry x="840" y="80" width="80" height="80" as="geometry"/>
                </mxCell>
                <mxCell id="NQSN5txB_GqRC8pSG8kW-10" value="&lt;font style=&quot;font-size: 18px&quot;&gt;0&lt;/font&gt;" style="rounded=0;whiteSpace=wrap;html=1;fillColor=#60a917;fontColor=#ffffff;strokeColor=#2D7600;" parent="1" vertex="1">
                    <mxGeometry x="920" y="80" width="80" height="80" as="geometry"/>
                </mxCell>
                <mxCell id="NQSN5txB_GqRC8pSG8kW-11" value="&lt;font style=&quot;font-size: 18px&quot;&gt;1&lt;/font&gt;" style="rounded=0;whiteSpace=wrap;html=1;fillColor=#60a917;fontColor=#ffffff;strokeColor=#2D7600;" parent="1" vertex="1">
                    <mxGeometry x="1000" y="80" width="80" height="80" as="geometry"/>
                </mxCell>
                <mxCell id="FJ9I6y6eGZePLmKggvOR-1" value="&lt;font style=&quot;font-size: 18px&quot;&gt;Debug Transport Module (DTM) TAP IR&lt;/font&gt;" style="text;html=1;strokeColor=none;fillColor=none;align=left;verticalAlign=middle;whiteSpace=wrap;rounded=0;fontColor=#FFFFFF;" parent="1" vertex="1">
                    <mxGeometry x="690" y="50" width="320" height="30" as="geometry"/>
                </mxCell>
                <mxCell id="FJ9I6y6eGZePLmKggvOR-2" value="&lt;font style=&quot;font-size: 18px&quot;&gt;Boundary Scan TAP IR&lt;/font&gt;" style="text;html=1;strokeColor=none;fillColor=none;align=left;verticalAlign=middle;whiteSpace=wrap;rounded=0;fontColor=#FFFFFF;" parent="1" vertex="1">
                    <mxGeometry x="210" y="50" width="320" height="30" as="geometry"/>
                </mxCell>
                <mxCell id="MK5vr49ICCGfiTwoqeV6-3" style="edgeStyle=none;html=1;fontColor=#FFFFFF;strokeColor=#FFFFFF;" parent="1" source="MK5vr49ICCGfiTwoqeV6-2" target="NQSN5txB_GqRC8pSG8kW-1" edge="1">
                    <mxGeometry relative="1" as="geometry"/>
                </mxCell>
                <mxCell id="MK5vr49ICCGfiTwoqeV6-2" value="&lt;font style=&quot;font-size: 18px&quot;&gt;1&lt;/font&gt;" style="text;html=1;strokeColor=none;fillColor=none;align=center;verticalAlign=middle;whiteSpace=wrap;rounded=0;fontColor=#FFFFFF;" parent="1" vertex="1">
                    <mxGeometry x="110" y="102.5" width="50" height="35" as="geometry"/>
                </mxCell>
                <mxCell id="MK5vr49ICCGfiTwoqeV6-6" style="edgeStyle=none;html=1;exitX=1;exitY=0.5;exitDx=0;exitDy=0;fontColor=#FFFFFF;strokeColor=#FFFFFF;" parent="1" edge="1">
                    <mxGeometry relative="1" as="geometry">
                        <mxPoint x="1080" y="119.17" as="sourcePoint"/>
                        <mxPoint x="1120" y="119" as="targetPoint"/>
                    </mxGeometry>
                </mxCell>
                <mxCell id="MK5vr49ICCGfiTwoqeV6-7" value="&lt;font style=&quot;font-size: 18px&quot;&gt;1&lt;/font&gt;" style="rounded=0;whiteSpace=wrap;html=1;fillColor=#d80073;fontColor=#ffffff;strokeColor=#A50040;" parent="1" vertex="1">
                    <mxGeometry x="200" y="220" width="80" height="80" as="geometry"/>
                </mxCell>
                <mxCell id="MK5vr49ICCGfiTwoqeV6-8" value="&lt;font style=&quot;font-size: 18px&quot;&gt;0&lt;/font&gt;" style="rounded=0;whiteSpace=wrap;html=1;fillColor=#d80073;fontColor=#ffffff;strokeColor=#A50040;" parent="1" vertex="1">
                    <mxGeometry x="280" y="220" width="80" height="80" as="geometry"/>
                </mxCell>
                <mxCell id="MK5vr49ICCGfiTwoqeV6-9" value="&lt;font style=&quot;font-size: 18px&quot;&gt;0&lt;/font&gt;" style="rounded=0;whiteSpace=wrap;html=1;fillColor=#d80073;fontColor=#ffffff;strokeColor=#A50040;" parent="1" vertex="1">
                    <mxGeometry x="360" y="220" width="80" height="80" as="geometry"/>
                </mxCell>
                <mxCell id="MK5vr49ICCGfiTwoqeV6-10" value="&lt;font style=&quot;font-size: 18px&quot;&gt;0&lt;/font&gt;" style="rounded=0;whiteSpace=wrap;html=1;fillColor=#d80073;fontColor=#ffffff;strokeColor=#A50040;" parent="1" vertex="1">
                    <mxGeometry x="440" y="220" width="80" height="80" as="geometry"/>
                </mxCell>
                <mxCell id="MK5vr49ICCGfiTwoqeV6-11" style="edgeStyle=none;html=1;exitX=1;exitY=0.5;exitDx=0;exitDy=0;entryX=0;entryY=0.5;entryDx=0;entryDy=0;fontColor=#FFFFFF;strokeColor=#FFFFFF;" parent="1" source="MK5vr49ICCGfiTwoqeV6-12" target="MK5vr49ICCGfiTwoqeV6-13" edge="1">
                    <mxGeometry relative="1" as="geometry"/>
                </mxCell>
                <mxCell id="MK5vr49ICCGfiTwoqeV6-12" value="&lt;font style=&quot;font-size: 18px&quot;&gt;0&lt;/font&gt;" style="rounded=0;whiteSpace=wrap;html=1;fillColor=#d80073;fontColor=#ffffff;strokeColor=#A50040;" parent="1" vertex="1">
                    <mxGeometry x="520" y="220" width="80" height="80" as="geometry"/>
                </mxCell>
                <mxCell id="MK5vr49ICCGfiTwoqeV6-13" value="&lt;font style=&quot;font-size: 18px&quot;&gt;1&lt;/font&gt;" style="rounded=0;whiteSpace=wrap;html=1;fillColor=#60a917;fontColor=#ffffff;strokeColor=#2D7600;" parent="1" vertex="1">
                    <mxGeometry x="680" y="220" width="80" height="80" as="geometry"/>
                </mxCell>
                <mxCell id="MK5vr49ICCGfiTwoqeV6-14" value="&lt;font style=&quot;font-size: 18px&quot;&gt;0&lt;/font&gt;" style="rounded=0;whiteSpace=wrap;html=1;fillColor=#60a917;fontColor=#ffffff;strokeColor=#2D7600;" parent="1" vertex="1">
                    <mxGeometry x="760" y="220" width="80" height="80" as="geometry"/>
                </mxCell>
                <mxCell id="MK5vr49ICCGfiTwoqeV6-15" value="&lt;font style=&quot;font-size: 18px&quot;&gt;0&lt;/font&gt;" style="rounded=0;whiteSpace=wrap;html=1;fillColor=#60a917;fontColor=#ffffff;strokeColor=#2D7600;" parent="1" vertex="1">
                    <mxGeometry x="840" y="220" width="80" height="80" as="geometry"/>
                </mxCell>
                <mxCell id="MK5vr49ICCGfiTwoqeV6-16" value="&lt;font style=&quot;font-size: 18px&quot;&gt;0&lt;/font&gt;" style="rounded=0;whiteSpace=wrap;html=1;fillColor=#60a917;fontColor=#ffffff;strokeColor=#2D7600;" parent="1" vertex="1">
                    <mxGeometry x="920" y="220" width="80" height="80" as="geometry"/>
                </mxCell>
                <mxCell id="MK5vr49ICCGfiTwoqeV6-17" value="&lt;font style=&quot;font-size: 18px&quot;&gt;0&lt;/font&gt;" style="rounded=0;whiteSpace=wrap;html=1;fillColor=#60a917;fontColor=#ffffff;strokeColor=#2D7600;" parent="1" vertex="1">
                    <mxGeometry x="1000" y="220" width="80" height="80" as="geometry"/>
                </mxCell>
                <mxCell id="MK5vr49ICCGfiTwoqeV6-20" value="&lt;span style=&quot;font-size: 22px;&quot;&gt;&lt;b&gt;Time T1&lt;/b&gt;&lt;/span&gt;" style="text;html=1;strokeColor=none;fillColor=none;align=left;verticalAlign=middle;whiteSpace=wrap;rounded=0;fontSize=18;fontColor=#FFFFFF;" parent="1" vertex="1">
                    <mxGeometry x="95" y="160" width="450" height="70" as="geometry"/>
                </mxCell>
                <mxCell id="MK5vr49ICCGfiTwoqeV6-21" style="edgeStyle=none;html=1;fontColor=#FFFFFF;strokeColor=#FFFFFF;" parent="1" target="MK5vr49ICCGfiTwoqeV6-7" edge="1">
                    <mxGeometry relative="1" as="geometry">
                        <mxPoint x="160" y="260" as="sourcePoint"/>
                    </mxGeometry>
                </mxCell>
                <mxCell id="MK5vr49ICCGfiTwoqeV6-23" style="edgeStyle=none;html=1;exitX=1;exitY=0.5;exitDx=0;exitDy=0;fontColor=#FFFFFF;strokeColor=#FFFFFF;" parent="1" edge="1">
                    <mxGeometry relative="1" as="geometry">
                        <mxPoint x="1080" y="259.1700000000001" as="sourcePoint"/>
                        <mxPoint x="1120" y="259" as="targetPoint"/>
                    </mxGeometry>
                </mxCell>
                <mxCell id="MK5vr49ICCGfiTwoqeV6-24" value="&lt;font style=&quot;font-size: 18px&quot;&gt;1&lt;/font&gt;" style="text;html=1;strokeColor=none;fillColor=none;align=center;verticalAlign=middle;whiteSpace=wrap;rounded=0;fontColor=#FFFFFF;" parent="1" vertex="1">
                    <mxGeometry x="1120" y="242.5" width="50" height="35" as="geometry"/>
                </mxCell>
            </root>
        </mxGraphModel>
    </diagram>
    <diagram name="RUN-TEST-IDLE to SHIFT-IR TMS Command" id="Je0R1iopkX4cWwfn8G1H">
        <mxGraphModel dx="748" dy="470" grid="1" gridSize="10" guides="1" tooltips="1" connect="1" arrows="1" fold="1" page="1" pageScale="1" pageWidth="850" pageHeight="1100" math="0" shadow="0">
            <root>
                <mxCell id="gb1-X291aacRGUeHc7Kq-0"/>
                <mxCell id="gb1-X291aacRGUeHc7Kq-1" parent="gb1-X291aacRGUeHc7Kq-0"/>
                <mxCell id="gb1-X291aacRGUeHc7Kq-15" value="&lt;font style=&quot;font-size: 18px&quot;&gt;4B&lt;/font&gt;" style="rounded=0;whiteSpace=wrap;html=1;fillColor=#d80073;fontColor=#ffffff;strokeColor=#A50040;" parent="gb1-X291aacRGUeHc7Kq-1" vertex="1">
                    <mxGeometry x="40" y="70" width="80" height="80" as="geometry"/>
                </mxCell>
                <mxCell id="gb1-X291aacRGUeHc7Kq-16" value="&lt;font style=&quot;font-size: 18px&quot;&gt;04&lt;/font&gt;" style="rounded=0;whiteSpace=wrap;html=1;fillColor=#e3c800;fontColor=#000000;strokeColor=#B09500;" parent="gb1-X291aacRGUeHc7Kq-1" vertex="1">
                    <mxGeometry x="120" y="70" width="80" height="80" as="geometry"/>
                </mxCell>
                <mxCell id="gb1-X291aacRGUeHc7Kq-17" value="&lt;font style=&quot;font-size: 18px&quot;&gt;Cmd&lt;/font&gt;" style="text;html=1;strokeColor=none;fillColor=none;align=center;verticalAlign=middle;whiteSpace=wrap;rounded=0;fontColor=#FFFFFF;" parent="gb1-X291aacRGUeHc7Kq-1" vertex="1">
                    <mxGeometry x="40" y="155" width="80" height="40" as="geometry"/>
                </mxCell>
                <mxCell id="gb1-X291aacRGUeHc7Kq-18" value="&lt;font style=&quot;font-size: 18px&quot;&gt;Length&lt;br&gt;(bits)&lt;/font&gt;" style="text;html=1;strokeColor=none;fillColor=none;align=center;verticalAlign=middle;whiteSpace=wrap;rounded=0;fontColor=#FFFFFF;" parent="gb1-X291aacRGUeHc7Kq-1" vertex="1">
                    <mxGeometry x="90" y="160" width="140" height="30" as="geometry"/>
                </mxCell>
                <mxCell id="gb1-X291aacRGUeHc7Kq-19" value="&lt;font style=&quot;font-size: 18px&quot;&gt;03&lt;/font&gt;" style="rounded=0;whiteSpace=wrap;html=1;fillColor=#60a917;fontColor=#ffffff;strokeColor=#2D7600;" parent="gb1-X291aacRGUeHc7Kq-1" vertex="1">
                    <mxGeometry x="200" y="70" width="80" height="80" as="geometry"/>
                </mxCell>
                <mxCell id="gb1-X291aacRGUeHc7Kq-21" value="&lt;b&gt;&lt;font style=&quot;font-size: 22px&quot;&gt;Clock Data to TMS Pin (LSB first, No Read)&lt;/font&gt;&lt;/b&gt;" style="text;html=1;strokeColor=none;fillColor=none;align=left;verticalAlign=middle;whiteSpace=wrap;rounded=0;fontSize=18;fontColor=#FFFFFF;" parent="gb1-X291aacRGUeHc7Kq-1" vertex="1">
                    <mxGeometry width="450" height="70" as="geometry"/>
                </mxCell>
                <mxCell id="gb1-X291aacRGUeHc7Kq-25" value="&lt;span style=&quot;font-size: 18px&quot;&gt;Data&lt;br&gt;(to TMS)&lt;br&gt;&lt;/span&gt;" style="text;html=1;strokeColor=none;fillColor=none;align=center;verticalAlign=middle;whiteSpace=wrap;rounded=0;fontColor=#FFFFFF;" parent="gb1-X291aacRGUeHc7Kq-1" vertex="1">
                    <mxGeometry x="200" y="160" width="80" height="30" as="geometry"/>
                </mxCell>
            </root>
        </mxGraphModel>
    </diagram>
    <diagram id="Je22LKHHut53o5FSSt6w" name="All commands">
        <mxGraphModel dx="748" dy="470" grid="1" gridSize="10" guides="1" tooltips="1" connect="1" arrows="1" fold="1" page="1" pageScale="1" pageWidth="850" pageHeight="1100" math="0" shadow="0">
            <root>
                <mxCell id="Hnii4bAzNyIdr37TuidX-0"/>
                <mxCell id="Hnii4bAzNyIdr37TuidX-1" parent="Hnii4bAzNyIdr37TuidX-0"/>
                <mxCell id="Hnii4bAzNyIdr37TuidX-2" value="&lt;font style=&quot;font-size: 18px&quot;&gt;39&lt;/font&gt;" style="rounded=0;whiteSpace=wrap;html=1;fillColor=#d80073;fontColor=#ffffff;strokeColor=#A50040;" parent="Hnii4bAzNyIdr37TuidX-1" vertex="1">
                    <mxGeometry x="40" y="70" width="80" height="80" as="geometry"/>
                </mxCell>
                <mxCell id="Hnii4bAzNyIdr37TuidX-3" value="&lt;font style=&quot;font-size: 18px&quot;&gt;06&lt;/font&gt;" style="rounded=0;whiteSpace=wrap;html=1;fillColor=#e3c800;fontColor=#000000;strokeColor=#B09500;" parent="Hnii4bAzNyIdr37TuidX-1" vertex="1">
                    <mxGeometry x="120" y="70" width="80" height="80" as="geometry"/>
                </mxCell>
                <mxCell id="Hnii4bAzNyIdr37TuidX-13" value="&lt;font style=&quot;font-size: 18px&quot;&gt;Cmd&lt;/font&gt;" style="text;html=1;strokeColor=none;fillColor=none;align=center;verticalAlign=middle;whiteSpace=wrap;rounded=0;fontColor=#FFFFFF;" parent="Hnii4bAzNyIdr37TuidX-1" vertex="1">
                    <mxGeometry x="40" y="145" width="80" height="40" as="geometry"/>
                </mxCell>
                <mxCell id="Hnii4bAzNyIdr37TuidX-14" value="&lt;font style=&quot;font-size: 18px&quot;&gt;Length (bytes)&lt;/font&gt;" style="text;html=1;strokeColor=none;fillColor=none;align=center;verticalAlign=middle;whiteSpace=wrap;rounded=0;fontColor=#FFFFFF;" parent="Hnii4bAzNyIdr37TuidX-1" vertex="1">
                    <mxGeometry x="130" y="150" width="140" height="30" as="geometry"/>
                </mxCell>
                <mxCell id="Hnii4bAzNyIdr37TuidX-16" value="&lt;font style=&quot;font-size: 18px&quot;&gt;00&lt;/font&gt;" style="rounded=0;whiteSpace=wrap;html=1;fillColor=#e3c800;fontColor=#000000;strokeColor=#B09500;" parent="Hnii4bAzNyIdr37TuidX-1" vertex="1">
                    <mxGeometry x="200" y="70" width="80" height="80" as="geometry"/>
                </mxCell>
                <mxCell id="Hnii4bAzNyIdr37TuidX-18" value="&lt;font style=&quot;font-size: 18px&quot;&gt;FF&lt;/font&gt;" style="rounded=0;whiteSpace=wrap;html=1;fillColor=#60a917;fontColor=#ffffff;strokeColor=#2D7600;" parent="Hnii4bAzNyIdr37TuidX-1" vertex="1">
                    <mxGeometry x="280" y="70" width="80" height="80" as="geometry"/>
                </mxCell>
                <mxCell id="Hnii4bAzNyIdr37TuidX-19" value="&lt;font style=&quot;font-size: 18px&quot;&gt;FF&lt;/font&gt;" style="rounded=0;whiteSpace=wrap;html=1;fillColor=#60a917;fontColor=#ffffff;strokeColor=#2D7600;" parent="Hnii4bAzNyIdr37TuidX-1" vertex="1">
                    <mxGeometry x="760" y="70" width="80" height="80" as="geometry"/>
                </mxCell>
                <mxCell id="Hnii4bAzNyIdr37TuidX-20" value="&lt;font style=&quot;font-size: 18px&quot;&gt;FF&lt;/font&gt;" style="rounded=0;whiteSpace=wrap;html=1;fillColor=#60a917;fontColor=#ffffff;strokeColor=#2D7600;" parent="Hnii4bAzNyIdr37TuidX-1" vertex="1">
                    <mxGeometry x="680" y="70" width="80" height="80" as="geometry"/>
                </mxCell>
                <mxCell id="Hnii4bAzNyIdr37TuidX-21" value="&lt;font style=&quot;font-size: 18px&quot;&gt;FF&lt;/font&gt;" style="rounded=0;whiteSpace=wrap;html=1;fillColor=#60a917;fontColor=#ffffff;strokeColor=#2D7600;" parent="Hnii4bAzNyIdr37TuidX-1" vertex="1">
                    <mxGeometry x="600" y="70" width="80" height="80" as="geometry"/>
                </mxCell>
                <mxCell id="Hnii4bAzNyIdr37TuidX-22" value="&lt;font style=&quot;font-size: 18px&quot;&gt;FF&lt;/font&gt;" style="rounded=0;whiteSpace=wrap;html=1;fillColor=#60a917;fontColor=#ffffff;strokeColor=#2D7600;" parent="Hnii4bAzNyIdr37TuidX-1" vertex="1">
                    <mxGeometry x="520" y="70" width="80" height="80" as="geometry"/>
                </mxCell>
                <mxCell id="Hnii4bAzNyIdr37TuidX-23" value="&lt;font style=&quot;font-size: 18px&quot;&gt;FF&lt;/font&gt;" style="rounded=0;whiteSpace=wrap;html=1;fillColor=#60a917;fontColor=#ffffff;strokeColor=#2D7600;" parent="Hnii4bAzNyIdr37TuidX-1" vertex="1">
                    <mxGeometry x="440" y="70" width="80" height="80" as="geometry"/>
                </mxCell>
                <mxCell id="Hnii4bAzNyIdr37TuidX-24" value="&lt;font style=&quot;font-size: 18px&quot;&gt;FF&lt;/font&gt;" style="rounded=0;whiteSpace=wrap;html=1;fillColor=#60a917;fontColor=#ffffff;strokeColor=#2D7600;" parent="Hnii4bAzNyIdr37TuidX-1" vertex="1">
                    <mxGeometry x="360" y="70" width="80" height="80" as="geometry"/>
                </mxCell>
                <mxCell id="Hnii4bAzNyIdr37TuidX-26" value="&lt;span style=&quot;font-size: 18px&quot;&gt;Data (to TDI)&lt;/span&gt;" style="text;html=1;strokeColor=none;fillColor=none;align=center;verticalAlign=middle;whiteSpace=wrap;rounded=0;fontColor=#FFFFFF;" parent="Hnii4bAzNyIdr37TuidX-1" vertex="1">
                    <mxGeometry x="465" y="155" width="190" height="30" as="geometry"/>
                </mxCell>
                <mxCell id="Hnii4bAzNyIdr37TuidX-28" value="&lt;font style=&quot;font-size: 18px&quot;&gt;4B&lt;/font&gt;" style="rounded=0;whiteSpace=wrap;html=1;fillColor=#d80073;fontColor=#ffffff;strokeColor=#A50040;" parent="Hnii4bAzNyIdr37TuidX-1" vertex="1">
                    <mxGeometry x="40" y="270" width="80" height="80" as="geometry"/>
                </mxCell>
                <mxCell id="Hnii4bAzNyIdr37TuidX-29" value="&lt;font style=&quot;font-size: 18px&quot;&gt;04&lt;/font&gt;" style="rounded=0;whiteSpace=wrap;html=1;fillColor=#e3c800;fontColor=#000000;strokeColor=#B09500;" parent="Hnii4bAzNyIdr37TuidX-1" vertex="1">
                    <mxGeometry x="120" y="270" width="80" height="80" as="geometry"/>
                </mxCell>
                <mxCell id="Hnii4bAzNyIdr37TuidX-30" value="&lt;font style=&quot;font-size: 18px&quot;&gt;Cmd&lt;/font&gt;" style="text;html=1;strokeColor=none;fillColor=none;align=center;verticalAlign=middle;whiteSpace=wrap;rounded=0;fontColor=#FFFFFF;" parent="Hnii4bAzNyIdr37TuidX-1" vertex="1">
                    <mxGeometry x="40" y="355" width="80" height="40" as="geometry"/>
                </mxCell>
                <mxCell id="Hnii4bAzNyIdr37TuidX-31" value="&lt;font style=&quot;font-size: 18px&quot;&gt;Length&lt;br&gt;(bits)&lt;/font&gt;" style="text;html=1;strokeColor=none;fillColor=none;align=center;verticalAlign=middle;whiteSpace=wrap;rounded=0;fontColor=#FFFFFF;" parent="Hnii4bAzNyIdr37TuidX-1" vertex="1">
                    <mxGeometry x="90" y="360" width="140" height="30" as="geometry"/>
                </mxCell>
                <mxCell id="Hnii4bAzNyIdr37TuidX-33" value="&lt;font style=&quot;font-size: 18px&quot;&gt;03&lt;/font&gt;" style="rounded=0;whiteSpace=wrap;html=1;fillColor=#60a917;fontColor=#ffffff;strokeColor=#2D7600;" parent="Hnii4bAzNyIdr37TuidX-1" vertex="1">
                    <mxGeometry x="200" y="270" width="80" height="80" as="geometry"/>
                </mxCell>
                <mxCell id="Hnii4bAzNyIdr37TuidX-41" value="&lt;b&gt;&lt;font style=&quot;font-size: 22px&quot;&gt;Clock Data Bytes In and Out (LSB first)&lt;/font&gt;&lt;/b&gt;" style="text;html=1;strokeColor=none;fillColor=none;align=left;verticalAlign=middle;whiteSpace=wrap;rounded=0;fontSize=18;fontColor=#FFFFFF;" parent="Hnii4bAzNyIdr37TuidX-1" vertex="1">
                    <mxGeometry width="450" height="70" as="geometry"/>
                </mxCell>
                <mxCell id="Hnii4bAzNyIdr37TuidX-42" value="&lt;b&gt;&lt;font style=&quot;font-size: 22px&quot;&gt;Clock Data to TMS Pin (LSB first, No Read)&lt;/font&gt;&lt;/b&gt;" style="text;html=1;strokeColor=none;fillColor=none;align=left;verticalAlign=middle;whiteSpace=wrap;rounded=0;fontSize=18;fontColor=#FFFFFF;" parent="Hnii4bAzNyIdr37TuidX-1" vertex="1">
                    <mxGeometry y="200" width="450" height="70" as="geometry"/>
                </mxCell>
                <mxCell id="Hnii4bAzNyIdr37TuidX-43" value="&lt;font style=&quot;font-size: 18px&quot;&gt;85&lt;/font&gt;" style="rounded=0;whiteSpace=wrap;html=1;fillColor=#d80073;fontColor=#ffffff;strokeColor=#A50040;" parent="Hnii4bAzNyIdr37TuidX-1" vertex="1">
                    <mxGeometry x="560" y="270" width="80" height="80" as="geometry"/>
                </mxCell>
                <mxCell id="Hnii4bAzNyIdr37TuidX-45" value="&lt;font style=&quot;font-size: 18px&quot;&gt;Cmd&lt;/font&gt;" style="text;html=1;strokeColor=none;fillColor=none;align=center;verticalAlign=middle;whiteSpace=wrap;rounded=0;fontColor=#FFFFFF;" parent="Hnii4bAzNyIdr37TuidX-1" vertex="1">
                    <mxGeometry x="560" y="345" width="80" height="40" as="geometry"/>
                </mxCell>
                <mxCell id="Hnii4bAzNyIdr37TuidX-49" value="&lt;b&gt;&lt;font style=&quot;font-size: 22px&quot;&gt;Disable Loopback&lt;/font&gt;&lt;/b&gt;" style="text;html=1;strokeColor=none;fillColor=none;align=left;verticalAlign=middle;whiteSpace=wrap;rounded=0;fontSize=18;fontColor=#FFFFFF;" parent="Hnii4bAzNyIdr37TuidX-1" vertex="1">
                    <mxGeometry x="520" y="200" width="380" height="70" as="geometry"/>
                </mxCell>
                <mxCell id="Hnii4bAzNyIdr37TuidX-50" value="&lt;span style=&quot;font-size: 18px&quot;&gt;Data&lt;br&gt;(to TMS)&lt;br&gt;&lt;/span&gt;" style="text;html=1;strokeColor=none;fillColor=none;align=center;verticalAlign=middle;whiteSpace=wrap;rounded=0;fontColor=#FFFFFF;" parent="Hnii4bAzNyIdr37TuidX-1" vertex="1">
                    <mxGeometry x="200" y="360" width="80" height="30" as="geometry"/>
                </mxCell>
                <mxCell id="0bpTYqhyuHgkCNPsyEJo-1" value="" style="rounded=0;whiteSpace=wrap;html=1;fillColor=#d80073;fontColor=#ffffff;strokeColor=#A50040;" parent="Hnii4bAzNyIdr37TuidX-1" vertex="1">
                    <mxGeometry x="730" y="345" width="10" height="10" as="geometry"/>
                </mxCell>
                <mxCell id="0bpTYqhyuHgkCNPsyEJo-3" value="Command" style="text;html=1;strokeColor=none;fillColor=none;align=left;verticalAlign=middle;whiteSpace=wrap;rounded=0;fontColor=#FFFFFF;" parent="Hnii4bAzNyIdr37TuidX-1" vertex="1">
                    <mxGeometry x="750" y="340" width="60" height="20" as="geometry"/>
                </mxCell>
                <mxCell id="0bpTYqhyuHgkCNPsyEJo-4" value="" style="rounded=0;whiteSpace=wrap;html=1;fillColor=#e3c800;fontColor=#000000;strokeColor=#B09500;" parent="Hnii4bAzNyIdr37TuidX-1" vertex="1">
                    <mxGeometry x="730" y="365" width="10" height="10" as="geometry"/>
                </mxCell>
                <mxCell id="0bpTYqhyuHgkCNPsyEJo-5" value="Length" style="text;html=1;strokeColor=none;fillColor=none;align=left;verticalAlign=middle;whiteSpace=wrap;rounded=0;fontColor=#FFFFFF;" parent="Hnii4bAzNyIdr37TuidX-1" vertex="1">
                    <mxGeometry x="750" y="360" width="60" height="20" as="geometry"/>
                </mxCell>
                <mxCell id="0bpTYqhyuHgkCNPsyEJo-6" value="" style="rounded=0;whiteSpace=wrap;html=1;fillColor=#60a917;fontColor=#ffffff;strokeColor=#2D7600;" parent="Hnii4bAzNyIdr37TuidX-1" vertex="1">
                    <mxGeometry x="730" y="385" width="10" height="10" as="geometry"/>
                </mxCell>
                <mxCell id="0bpTYqhyuHgkCNPsyEJo-7" value="Data" style="text;html=1;strokeColor=none;fillColor=none;align=left;verticalAlign=middle;whiteSpace=wrap;rounded=0;fontColor=#FFFFFF;" parent="Hnii4bAzNyIdr37TuidX-1" vertex="1">
                    <mxGeometry x="750" y="380" width="60" height="20" as="geometry"/>
                </mxCell>
                <mxCell id="0bpTYqhyuHgkCNPsyEJo-8" value="&lt;b&gt;Key:&lt;/b&gt;" style="text;html=1;strokeColor=none;fillColor=none;align=left;verticalAlign=middle;whiteSpace=wrap;rounded=0;fontColor=#FFFFFF;" parent="Hnii4bAzNyIdr37TuidX-1" vertex="1">
                    <mxGeometry x="720" y="320" width="60" height="20" as="geometry"/>
                </mxCell>
                <mxCell id="0bpTYqhyuHgkCNPsyEJo-9" value="All values are hex" style="text;html=1;strokeColor=none;fillColor=none;align=left;verticalAlign=middle;whiteSpace=wrap;rounded=0;fontColor=#FFFFFF;" parent="Hnii4bAzNyIdr37TuidX-1" vertex="1">
                    <mxGeometry x="720" y="400" width="120" height="20" as="geometry"/>
                </mxCell>
            </root>
        </mxGraphModel>
    </diagram>
    <diagram id="DzTSX3YiG9NEGuemT79S" name="Debug Setup">
        <mxGraphModel dx="748" dy="470" grid="1" gridSize="10" guides="1" tooltips="1" connect="1" arrows="1" fold="1" page="1" pageScale="1" pageWidth="850" pageHeight="1100" math="0" shadow="0">
            <root>
                <mxCell id="0"/>
                <mxCell id="1" parent="0"/>
                <mxCell id="9" value="Bits via USB" style="edgeStyle=none;html=1;entryX=1;entryY=0.5;entryDx=0;entryDy=0;fillColor=none;fontColor=#FFFFFF;labelBackgroundColor=none;strokeColor=#FFFFFF;fontSize=14;strokeWidth=2;" parent="1" source="3" target="2" edge="1">
                    <mxGeometry y="-10" relative="1" as="geometry">
                        <mxPoint as="offset"/>
                    </mxGeometry>
                </mxCell>
                <mxCell id="5" style="edgeStyle=none;html=1;entryX=0;entryY=0.5;entryDx=0;entryDy=0;strokeColor=#FFFFFF;strokeWidth=2;fontColor=#FFFFFF;labelBackgroundColor=none;" parent="1" source="2" target="3" edge="1">
                    <mxGeometry relative="1" as="geometry"/>
                </mxCell>
                <mxCell id="7" value="" style="html=1;strokeColor=#000000;strokeWidth=2;" parent="1" source="3" target="4" edge="1">
                    <mxGeometry relative="1" as="geometry"/>
                </mxCell>
                <mxCell id="11" value="JTAG/SWD" style="edgeStyle=none;html=1;entryX=1;entryY=0.5;entryDx=0;entryDy=0;fillColor=none;fontColor=#FFFFFF;labelBackgroundColor=none;strokeColor=#FFFFFF;fontSize=15;" parent="1" source="4" target="3" edge="1">
                    <mxGeometry y="-10" relative="1" as="geometry">
                        <mxPoint as="offset"/>
                    </mxGeometry>
                </mxCell>
                <mxCell id="2" value="&lt;font style=&quot;font-size: 14px&quot;&gt;Dev PC&lt;/font&gt;" style="whiteSpace=wrap;html=1;aspect=fixed;fillColor=#d80073;fontColor=#ffffff;strokeColor=#A50040;" parent="1" vertex="1">
                    <mxGeometry x="40" y="40" width="120" height="120" as="geometry"/>
                </mxCell>
                <mxCell id="6" style="edgeStyle=none;html=1;entryX=0;entryY=0.5;entryDx=0;entryDy=0;strokeWidth=2;strokeColor=#FFFFFF;labelBackgroundColor=none;" parent="1" source="3" target="4" edge="1">
                    <mxGeometry relative="1" as="geometry"/>
                </mxCell>
                <mxCell id="3" value="&lt;font style=&quot;font-size: 14px&quot;&gt;Debug&lt;br&gt;Probe&lt;/font&gt;" style="whiteSpace=wrap;html=1;aspect=fixed;fillColor=#fa6800;fontColor=#000000;strokeColor=#C73500;" parent="1" vertex="1">
                    <mxGeometry x="280" y="40" width="120" height="120" as="geometry"/>
                </mxCell>
                <mxCell id="4" value="&lt;font style=&quot;font-size: 14px&quot;&gt;Target&lt;br&gt;Device&lt;/font&gt;" style="whiteSpace=wrap;html=1;aspect=fixed;fillColor=#e51400;fontColor=#ffffff;strokeColor=#B20000;" parent="1" vertex="1">
                    <mxGeometry x="520" y="40" width="120" height="120" as="geometry"/>
                </mxCell>
                <mxCell id="10" value="&lt;font style=&quot;font-size: 14px;&quot;&gt;Running probe-rs, OpenOCD, etc.&lt;/font&gt;" style="text;html=1;fillColor=none;align=center;verticalAlign=middle;whiteSpace=wrap;rounded=0;labelBackgroundColor=none;fontColor=#FFFFFF;fontSize=14;" parent="1" vertex="1">
                    <mxGeometry x="12.5" y="170" width="175" height="40" as="geometry"/>
                </mxCell>
                <mxCell id="12" value="&lt;font style=&quot;font-size: 14px&quot;&gt;JLink, STLink, FTDI, etc.&lt;/font&gt;" style="text;html=1;align=center;verticalAlign=middle;whiteSpace=wrap;rounded=0;fillColor=none;fontColor=#FFFFFF;" parent="1" vertex="1">
                    <mxGeometry x="260" y="170" width="160" height="30" as="geometry"/>
                </mxCell>
                <mxCell id="13" value="&lt;font style=&quot;font-size: 14px;&quot;&gt;ARM, RISC-V, etc.&lt;/font&gt;" style="text;html=1;strokeColor=none;fillColor=none;align=center;verticalAlign=middle;whiteSpace=wrap;rounded=0;fontColor=#FFFFFF;fontSize=14;" parent="1" vertex="1">
                    <mxGeometry x="507.5" y="170" width="145" height="30" as="geometry"/>
                </mxCell>
            </root>
        </mxGraphModel>
    </diagram>
</mxfile>